<?xml version="1.0" standalone="no"?><!DOCTYPE svg PUBLIC "-//W3C//DTD SVG 1.1//EN" "http://www.w3.org/Graphics/SVG/1.1/DTD/svg11.dtd"><svg t="1763098634982" class="icon" viewBox="0 0 1024 1024" version="1.1" xmlns="http://www.w3.org/2000/svg" p-id="6726" xmlns:xlink="http://www.w3.org/1999/xlink" width="200" height="200"><path d="M844.8 480h-44.8c-25.6 0-44.8-19.2-44.8-44.8 0-25.6 19.2-44.8 44.8-44.8h44.8c51.2 0 89.6-38.4 89.6-89.6s-38.4-89.6-89.6-89.6h-44.8c-25.6 0-44.8-19.2-44.8-44.8 0-25.6 19.2-44.8 44.8-44.8h44.8c96 0 179.2 76.8 179.2 179.2s-83.2 179.2-179.2 179.2z m-153.6 531.2H332.8c-25.6 0-44.8-19.2-44.8-44.8v-179.2c0-25.6 19.2-44.8 44.8-44.8h358.4c25.6 0 44.8 19.2 44.8 44.8v179.2c0 25.6-19.2 44.8-44.8 44.8zM601.6 832H422.4c-25.6 0-44.8 19.2-44.8 44.8s19.2 44.8 44.8 44.8h179.2c25.6 0 44.8-19.2 44.8-44.8s-19.2-44.8-44.8-44.8z m89.6-179.2H332.8c-25.6 0-44.8-19.2-44.8-44.8V435.2c0-25.6 19.2-44.8 44.8-44.8h358.4c25.6 0 44.8 19.2 44.8 44.8v179.2c0 19.2-19.2 38.4-44.8 38.4zM601.6 480H422.4c-25.6 0-44.8 19.2-44.8 44.8 0 25.6 19.2 44.8 44.8 44.8h179.2c25.6 0 44.8-19.2 44.8-44.8 0-25.6-19.2-44.8-44.8-44.8z m89.6-179.2H332.8c-25.6 0-44.8-19.2-44.8-44.8V76.8c0-25.6 19.2-44.8 44.8-44.8h358.4c25.6 0 44.8 19.2 44.8 44.8V256c0 25.6-19.2 44.8-44.8 44.8zM601.6 121.6H422.4c-25.6 0-44.8 19.2-44.8 44.8 0 25.6 19.2 44.8 44.8 44.8h179.2c25.6 0 44.8-19.2 44.8-44.8 0-25.6-19.2-44.8-44.8-44.8zM179.2 787.2h44.8c25.6 0 44.8 19.2 44.8 44.8 0 25.6-19.2 44.8-44.8 44.8h-44.8c-96 0-179.2-76.8-179.2-179.2s76.8-179.2 179.2-179.2h44.8c25.6 0 44.8 19.2 44.8 44.8s-19.2 44.8-44.8 44.8h-44.8c-51.2 0-89.6 38.4-89.6 89.6s38.4 89.6 89.6 89.6z" fill="#595959" p-id="6727"></path></svg>